<?xml version="1.0" standalone="no"?>
<!DOCTYPE svg PUBLIC "-//W3C//DTD SVG 20010904//EN"
 "http://www.w3.org/TR/2001/REC-SVG-20010904/DTD/svg10.dtd">
<svg version="1.0" xmlns="http://www.w3.org/2000/svg"
 width="512.000000pt" height="512.000000pt" viewBox="0 0 512.000000 512.000000"
 preserveAspectRatio="xMidYMid meet">
<metadata>
Created by potrace 1.11, written by Peter Selinger 2001-2013
</metadata>
<g transform="translate(0.000000,512.000000) scale(0.100000,-0.100000)"
fill="#000000" stroke="none">
<path d="M3295 3600 c8 -37 -3 -38 -55 -5 -38 24 -110 35 -110 16 0 -5 38 -37
85 -71 84 -61 85 -63 85 -105 0 -46 -10 -55 -59 -55 -20 0 -53 25 -136 105
-101 95 -138 119 -158 99 -4 -4 30 -47 76 -96 45 -49 88 -98 96 -109 13 -18
11 -19 -22 -19 -33 0 -42 7 -117 99 -44 55 -85 103 -91 106 -12 8 -157 -23
-175 -37 -8 -6 5 -52 46 -157 52 -137 56 -151 43 -175 -7 -14 -17 -26 -22 -26
-7 0 -36 84 -97 283 -13 42 -22 57 -36 57 -10 0 -18 -7 -18 -15 0 -9 21 -100
46 -202 l47 -186 -19 -35 c-24 -46 -37 -49 -76 -18 l-34 25 -18 173 c-25 242
-24 239 -54 219 -11 -7 -12 -39 -5 -172 5 -90 8 -167 6 -171 -2 -4 -15 -1 -29
8 -24 16 -24 18 -24 165 0 82 -3 149 -7 149 -5 0 -55 -18 -113 -39 l-104 -39
-26 -79 c-26 -76 -48 -102 -87 -103 -17 0 -17 -2 17 76 17 37 28 69 26 71 -3
3 -17 1 -33 -4 -21 -7 -38 -28 -68 -83 -34 -62 -46 -75 -77 -86 -41 -14 -51
-8 -62 39 -3 15 -13 27 -21 27 -7 0 -53 -18 -102 -41 -263 -123 -538 -191
-943 -234 -137 -14 -210 -35 -210 -59 1 -16 49 -69 90 -98 155 -111 445 -210
755 -259 108 -17 448 -17 553 0 45 7 85 11 89 8 3 -4 -14 -50 -37 -104 -131
-297 -231 -709 -304 -1249 -30 -220 -54 -336 -100 -479 -55 -175 -112 -317
-198 -491 -63 -128 -81 -178 -73 -204 6 -20 12 -22 59 -18 91 9 235 91 401
230 319 267 544 599 670 987 44 135 92 323 101 392 3 30 12 63 19 75 11 17 9
49 -7 185 -22 191 -25 585 -5 733 l12 89 160 67 c194 81 319 143 408 204 277
190 677 272 1156 236 240 -17 261 -8 171 73 -214 193 -742 357 -1148 357
l-144 0 7 -30z"/>
</g>
</svg>
